<mxfile host="app.diagrams.net" modified="2023-04-29T12:18:21.021Z" agent="Mozilla/5.0 (X11; Linux x86_64) AppleWebKit/537.36 (KHTML, like Gecko) Chrome/110.0.0.0 YaBrowser/23.3.1.906 (beta) Yowser/2.5 Safari/537.36" version="21.2.1" etag="V07V8psXyziJ1iegtEFY" type="github">
  <diagram name="Страница 1" id="xHqUA6RnhG8W_A5g9vWp">
    <mxGraphModel>
      <root>
        <mxCell id="0" />
        <mxCell id="1" parent="0" />
      </root>
    </mxGraphModel>
  </diagram>
</mxfile>
